<?xml version="1.0" encoding="UTF-8"?>
<svg width="25px" height="23px" viewBox="0 0 25 23" version="1.1" xmlns="http://www.w3.org/2000/svg" xmlns:xlink="http://www.w3.org/1999/xlink">
    <!-- Generator: Sketch 62 (91390) - https://sketch.com -->
    <title>heart</title>
    <desc>Created with Sketch.</desc>
    <g id="Page-1" stroke="none" stroke-width="1" fill="none" fill-rule="evenodd" fill-opacity="0.3">
        <g id="heart" fill="#DE4C36" stroke="#DE4C36" stroke-width="2">
            <path d="M23.4202854,7.57457713 C23.4485915,9.08358655 22.9153597,10.6013334 21.8199415,11.7869281 L12.4426256,21.2171281 L3.15583361,11.9767713 C2.00143236,10.7152765 1.42874676,9.15738713 1.43646631,7.62123375 C1.4441869,6.08487728 2.03342792,4.57314092 3.19163207,3.41493677 C4.34277248,2.26379636 5.84272252,1.67402925 7.35127243,1.64573177 C8.86538236,1.61732999 10.3882889,2.15426858 11.5756341,3.25720257 C11.8078273,3.47288863 12.0193789,3.7029659 12.2103098,3.94478507 C12.4218866,3.71595056 12.65103,3.49772349 12.8973112,3.29199452 C14.2418864,2.16881441 15.8621115,1.61459568 17.4428102,1.64327712 C18.9892762,1.67133741 20.495871,2.25972734 21.6510804,3.41493677 C22.8022208,4.56607718 23.3919879,6.06602723 23.4202854,7.57457713 Z"></path>
        </g>
    </g>
</svg>